<?xml version="1.0" encoding="UTF-8"?>
<svg xmlns="http://www.w3.org/2000/svg" xmlns:xlink="http://www.w3.org/1999/xlink" width="16px" height="16px" viewBox="0 0 16 16" version="1.1">
<g id="surface1">
<path style=" stroke:none;fill-rule:nonzero;fill:rgb(0%,0%,0%);fill-opacity:1;" d="M 5.398438 1.046875 C 3.839844 1.554688 1.492188 4 1.015625 5.585938 C 0.160156 8.476562 0.761719 10.953125 2.855469 13.015625 C 5.808594 16 10.0625 16 13.015625 13.015625 C 16 10.0625 16 5.808594 13.015625 2.855469 C 10.953125 0.792969 8.253906 0.160156 5.398438 1.046875 Z M 7.617188 2.855469 C 7.617188 4.285156 7.554688 4.445312 6.921875 4.445312 C 6.507812 4.445312 6 4.316406 5.746094 4.160156 C 5.078125 3.746094 6.414062 1.652344 7.554688 1.300781 C 7.585938 1.269531 7.617188 1.96875 7.617188 2.855469 Z M 9.871094 2.761719 C 10.636719 3.96875 10.382812 4.445312 8.984375 4.445312 C 8.316406 4.445312 8.253906 4.285156 8.253906 2.855469 C 8.253906 1.015625 8.761719 0.984375 9.871094 2.761719 Z M 5.300781 2.824219 C 4.792969 3.746094 4.476562 4 4.0625 3.839844 C 3.175781 3.523438 3.269531 3.078125 4.414062 2.316406 C 5.90625 1.300781 6.09375 1.398438 5.300781 2.824219 Z M 11.429688 2.285156 C 12.570312 3.078125 12.667969 3.523438 11.808594 3.839844 C 11.398438 4 11.078125 3.746094 10.570312 2.824219 C 9.777344 1.398438 9.96875 1.300781 11.429688 2.285156 Z M 4.316406 5.523438 C 4.222656 6.03125 4.128906 6.699219 4.128906 7.015625 C 4.128906 7.523438 3.871094 7.617188 2.699219 7.617188 C 1.046875 7.617188 0.921875 7.300781 1.871094 5.175781 C 2.476562 3.871094 2.507812 3.839844 3.492188 4.222656 C 4.382812 4.570312 4.476562 4.699219 4.316406 5.523438 Z M 13.96875 5.144531 C 14.953125 7.300781 14.855469 7.617188 13.175781 7.617188 C 12 7.617188 11.746094 7.523438 11.746094 7.015625 C 11.746094 6.699219 11.652344 6 11.554688 5.492188 C 11.363281 4.601562 11.492188 4.476562 13.269531 3.839844 C 13.332031 3.808594 13.652344 4.414062 13.96875 5.144531 Z M 7.078125 5.078125 C 7.492188 5.078125 7.617188 5.363281 7.617188 6.347656 L 7.617188 7.617188 L 6.191406 7.617188 C 4.667969 7.617188 4.601562 7.523438 4.953125 5.714844 C 5.144531 4.890625 5.269531 4.730469 5.839844 4.890625 C 6.222656 4.984375 6.761719 5.078125 7.078125 5.078125 Z M 10.921875 5.746094 C 11.269531 7.523438 11.207031 7.617188 9.683594 7.617188 L 8.253906 7.617188 L 8.253906 6.382812 C 8.253906 5.078125 8.222656 5.078125 10.347656 4.792969 C 10.539062 4.792969 10.792969 5.207031 10.921875 5.746094 Z M 4.128906 8.855469 C 4.128906 9.175781 4.222656 9.839844 4.316406 10.347656 C 4.476562 11.175781 4.382812 11.300781 3.492188 11.652344 C 2.507812 12.03125 2.476562 12 1.871094 10.699219 C 0.921875 8.570312 1.046875 8.253906 2.699219 8.253906 C 3.871094 8.253906 4.128906 8.347656 4.128906 8.855469 Z M 7.617188 9.492188 C 7.617188 10.667969 7.554688 10.730469 6.445312 10.890625 C 5.808594 11.015625 5.238281 11.046875 5.175781 11.015625 C 5.144531 10.953125 5.015625 10.316406 4.890625 9.585938 L 4.667969 8.253906 L 7.617188 8.253906 Z M 10.984375 9.585938 C 10.855469 10.316406 10.730469 10.953125 10.699219 11.015625 C 10.636719 11.046875 10.0625 11.015625 9.429688 10.890625 C 8.316406 10.730469 8.253906 10.667969 8.253906 9.492188 L 8.253906 8.253906 L 11.207031 8.253906 Z M 14.601562 8.792969 C 14.601562 9.109375 14.316406 9.96875 14 10.699219 C 13.398438 12 13.363281 12.03125 12.382812 11.652344 C 11.492188 11.300781 11.398438 11.175781 11.554688 10.347656 C 11.652344 9.839844 11.746094 9.175781 11.746094 8.855469 C 11.746094 8.347656 12 8.253906 13.175781 8.253906 C 14.316406 8.253906 14.601562 8.347656 14.601562 8.792969 Z M 7.617188 13.015625 C 7.617188 14.855469 7.109375 14.890625 6 13.109375 C 5.238281 11.90625 5.492188 11.429688 6.921875 11.429688 C 7.554688 11.429688 7.617188 11.585938 7.617188 13.015625 Z M 10.128906 11.714844 C 10.476562 11.9375 10.445312 12.191406 9.871094 13.109375 C 8.761719 14.890625 8.253906 14.855469 8.253906 13.015625 C 8.253906 11.585938 8.316406 11.429688 8.984375 11.429688 C 9.363281 11.429688 9.871094 11.554688 10.128906 11.714844 Z M 5.839844 14.222656 C 5.714844 14.414062 3.9375 13.398438 3.523438 12.890625 C 3.175781 12.476562 3.207031 12.347656 3.839844 12.09375 C 4.507812 11.871094 4.699219 11.96875 5.269531 12.984375 C 5.617188 13.617188 5.90625 14.160156 5.839844 14.222656 Z M 12.476562 12.539062 C 12.507812 12.855469 10.570312 14.285156 10.128906 14.285156 C 10 14.285156 10.191406 13.714844 10.570312 13.046875 C 11.109375 12.09375 11.363281 11.871094 11.839844 12.03125 C 12.160156 12.160156 12.445312 12.382812 12.476562 12.539062 Z M 12.476562 12.539062 "/>
</g>
</svg>
